<?xml version="1.0" encoding="UTF-8" standalone="no"?>
<!-- Created with Inkscape (http://www.inkscape.org/) -->
<svg
   xmlns:dc="http://purl.org/dc/elements/1.1/"
   xmlns:cc="http://web.resource.org/cc/"
   xmlns:rdf="http://www.w3.org/1999/02/22-rdf-syntax-ns#"
   xmlns:svg="http://www.w3.org/2000/svg"
   xmlns="http://www.w3.org/2000/svg"
   xmlns:sodipodi="http://sodipodi.sourceforge.net/DTD/sodipodi-0.dtd"
   xmlns:inkscape="http://www.inkscape.org/namespaces/inkscape"
   width="580"
   height="200"
   id="svg2226"
   sodipodi:version="0.32"
   inkscape:version="0.45.1"
   sodipodi:docbase="/home/spider"
   sodipodi:docname="OF-na.svg"
   inkscape:output_extension="org.inkscape.output.svg.inkscape"
   version="1.0">
  <sodipodi:namedview
     id="base"
     pagecolor="#ffffff"
     bordercolor="#666666"
     borderopacity="1.0"
     gridtolerance="10000"
     guidetolerance="10"
     objecttolerance="10"
     inkscape:pageopacity="0.0"
     inkscape:pageshadow="2"
     inkscape:zoom="2.0310345"
     inkscape:cx="290"
     inkscape:cy="100"
     inkscape:document-units="px"
     inkscape:current-layer="layer1"
     showguides="false"
     inkscape:window-width="1272"
     inkscape:window-height="955"
     inkscape:window-x="0"
     inkscape:window-y="0"
     width="580px"
     height="200px" />
  <defs
     id="defs2228">
    <marker
       style="overflow:visible"
       orient="auto"
       id="Arrow1Lend"
       refY="0"
       inkscape:stockid="Arrow1Lend"
       refX="0">
      <path
         d="M 0,0 L 5,-5 L -12.5,0 L 5,5 L 0,0 z "
         style="fill-rule:evenodd;stroke:#000000;stroke-width:1pt;marker-start:none"
         transform="matrix(-0.8,0,0,-0.8,-10,0)"
         id="path4218" />
    </marker>
  </defs>
  <metadata
     id="metadata2231">
    <rdf:RDF>
      <cc:Work
         rdf:about="">
        <dc:format>image/svg+xml</dc:format>
        <dc:type
           rdf:resource="http://purl.org/dc/dcmitype/StillImage" />
      </cc:Work>
    </rdf:RDF>
  </metadata>
  <g
     inkscape:label="Layer 1"
     style="display:inline"
     id="layer1"
     inkscape:groupmode="layer"
     transform="translate(-87.876297,-432.04212)">
    <g
       id="g2222"
       transform="translate(3.4022829,13.3457)">
      <g
         id="g11596">
        <path
           id="path2244"
           d="M 368.59375,484.65625 L 216.59375,514.96875 L 216.53125,515 L 216.5,515 L 108.90625,559.96875 L 109.28125,560.875 L 216.78125,515.96875 L 216.875,515.9375 L 368.65625,485.6875 L 570.09375,541.1875 L 570.21875,541.25 L 570.34375,541.21875 L 657.71875,520.5 L 657.5,519.53125 L 570.1875,540.1875 L 368.84375,484.6875 L 368.71875,484.65625 L 368.59375,484.65625 z "
           style="fill:#ff0000;fill-opacity:1;fill-rule:evenodd;stroke:none;stroke-width:1px;stroke-linecap:butt;stroke-linejoin:miter;stroke-opacity:1" />
        <path
           d="M 647.87884,522.31786 L 644.90908,527.13247 L 657.60931,520.01179 L 643.06422,519.34809 L 647.87884,522.31786 z "
           style="fill:#ff0000;fill-opacity:1;fill-rule:evenodd;stroke:#ff0000;stroke-width:0.8pt;marker-start:none;stroke-opacity:1"
           id="path11602" />
      </g>
      <rect
         height="99.918358"
         x="216.142"
         y="462.6983"
         width="442.00296"
         id="rect2246"
         style="fill:none;fill-opacity:1;fill-rule:evenodd;stroke:#000000;stroke-width:1;stroke-linecap:square;stroke-linejoin:round;stroke-miterlimit:4;stroke-dasharray:none;stroke-dashoffset:0;stroke-opacity:1" />
      <rect
         height="24.24367"
         x="216.17264"
         y="462.43311"
         width="441.94174"
         id="rect3221"
         style="fill:#dedede;fill-opacity:1;fill-rule:evenodd;stroke:#000000;stroke-width:1;stroke-linecap:square;stroke-linejoin:round;stroke-miterlimit:4;stroke-dasharray:none;stroke-dashoffset:0;stroke-opacity:1" />
      <path
         id="path3225"
         d="M 114.65231,514.96103 L 369.21076,514.96103"
         style="fill:none;fill-opacity:0.75;fill-rule:evenodd;stroke:#000000;stroke-width:1;stroke-linecap:butt;stroke-linejoin:miter;stroke-miterlimit:4;stroke-dasharray:6, 6;stroke-dashoffset:0;stroke-opacity:1" />
      <rect
         height="24.24367"
         x="216.17264"
         y="538.39252"
         width="441.94174"
         id="rect3241"
         style="fill:#dedede;fill-opacity:1;fill-rule:evenodd;stroke:#000000;stroke-width:1;stroke-linecap:square;stroke-linejoin:round;stroke-miterlimit:4;stroke-dasharray:none;stroke-dashoffset:0;stroke-opacity:1" />
      <g
         transform="matrix(0.31716,0,0,0.31716,-5.1374885,420.29989)"
         id="g4429">
        <g
           font-weight="normal"
           xml:space="preserve"
           stroke-miterlimit="10.433"
           id="content"
           font-stretch="normal"
           transform="matrix(1.0629921,0,0,-1.0629921,-186.02362,789.27165)"
           fill-rule="even-odd"
           style="font-style:normal;font-variant:normal;font-weight:normal;font-stretch:normal;letter-spacing:normal;word-spacing:normal;text-anchor:start;fill:none;fill-opacity:1;stroke:#000000;stroke-linecap:butt;stroke-linejoin:miter;stroke-miterlimit:10.43299961;stroke-dasharray:none;stroke-dashoffset:0;stroke-opacity:1"
           word-spacing="normal"
           font-size-adjust="none"
           font-style="normal"
           letter-spacing="normal"
           font-variant="normal"><path
             d="M 478.66,430.91 L 478.66,431.22 L 478.65,431.56 L 478.64,431.92 L 478.62,432.29 L 478.59,432.67 L 478.55,433.07 L 478.5,433.48 L 478.44,433.89 L 478.38,434.31 L 478.3,434.73 L 478.21,435.16 L 478.11,435.58 L 478,436.01 L 477.87,436.43 L 477.74,436.84 L 477.58,437.24 L 477.41,437.64 L 477.23,438.03 L 477.03,438.4 L 476.81,438.75 L 476.58,439.09 L 476.33,439.41 L 476.06,439.71 L 475.77,439.98 L 475.46,440.23 L 475.29,440.35 L 475.13,440.46 L 474.95,440.56 L 474.78,440.65 L 474.59,440.74 L 474.4,440.81 L 474.21,440.88 L 474.01,440.94 L 473.8,441 L 473.59,441.04 L 473.38,441.07 L 473.15,441.1 L 472.92,441.11 L 472.69,441.12 L 472.64,440.02 C 475.08,440.02 475.38,436.84 475.38,434 C 475.38,431.55 474.98,429.01 473.79,424.08 L 463.37,424.08 C 464.22,427.27 465.21,431.25 467.21,434.79 C 468.55,437.23 470.39,440.02 472.64,440.02 L 472.69,441.12 C 465.76,441.12 458.09,427.07 458.09,415.66 C 458.09,410.98 459.54,405.45 464.07,405.45 L 464.07,406.55 C 462.43,406.55 461.38,407.99 461.38,412.62 C 461.38,414.72 461.68,417.61 462.97,422.49 L 473.34,422.49 C 472.79,420.2 471.74,415.96 469.85,412.38 C 468.11,408.99 466.21,406.55 464.07,406.55 L 464.07,405.45 C 471.09,405.45 478.66,419.75 478.66,430.91 z "
             id="path4432"
             style="fill:#000000;stroke-width:0" /><path
             d="M 494.13,401.82 L 494.12,401.76 L 494.1,401.69 L 494.08,401.62 L 494.06,401.54 L 494.04,401.47 L 494.02,401.39 L 493.98,401.23 L 493.94,401.07 L 493.9,400.91 L 493.86,400.75 L 493.84,400.68 L 493.82,400.6 L 493.8,400.52 L 493.79,400.45 L 493.77,400.38 L 493.75,400.31 L 493.74,400.24 L 493.72,400.18 L 493.71,400.12 L 493.7,400.06 L 493.69,400.01 L 493.67,399.96 L 493.67,399.92 L 493.66,399.88 L 493.65,399.84 L 493.65,399.81 L 493.65,399.79 L 493.64,399.77 C 493.64,399 494.27,398.65 494.83,398.65 C 495.46,398.65 496.02,399.11 496.19,399.42 C 496.36,399.73 496.64,400.85 496.82,401.58 C 496.99,402.24 497.38,403.85 497.59,404.72 C 497.79,405.48 498,406.25 498.18,407.05 C 498.56,408.55 498.56,408.62 499.26,409.7 C 500.38,411.41 502.12,413.4 504.84,413.4 C 506.79,413.4 506.89,411.8 506.89,410.96 C 506.89,408.87 505.39,405 504.84,403.53 C 504.45,402.56 504.32,402.24 504.32,401.65 C 504.32,399.8 505.85,398.65 507.63,398.65 C 511.11,398.65 512.65,403.46 512.65,403.98 C 512.65,404.44 512.2,404.44 512.09,404.44 C 511.6,404.44 511.57,404.23 511.43,403.85 C 510.62,401.06 509.13,399.63 507.73,399.63 C 507,399.63 506.86,400.12 506.86,400.85 C 506.86,401.65 507.04,402.1 507.66,403.67 C 508.08,404.75 509.51,408.45 509.51,410.4 C 509.51,410.96 509.51,412.43 508.22,413.44 C 507.63,413.89 506.62,414.38 504.98,414.38 C 501.84,414.38 499.92,412.32 498.8,410.86 C 498.53,413.82 496.05,414.38 494.27,414.38 C 491.38,414.38 489.43,412.6 488.38,411.2 C 488.14,413.61 486.08,414.38 484.65,414.38 C 483.15,414.38 482.35,413.3 481.89,412.5 C 481.13,411.2 480.64,409.21 480.64,409.04 C 480.64,408.59 481.13,408.59 481.23,408.59 C 481.72,408.59 481.75,408.7 482,409.64 C 482.52,411.69 483.18,413.4 484.54,413.4 C 485.45,413.4 485.7,412.63 485.7,411.69 C 485.7,411.03 485.38,409.74 485.14,408.8 C 484.89,407.86 484.54,406.43 484.37,405.66 L 483.25,401.2 C 483.11,400.74 482.91,399.87 482.91,399.77 C 482.91,399 483.53,398.65 484.09,398.65 C 484.72,398.65 485.28,399.11 485.45,399.42 C 485.62,399.73 485.9,400.85 486.08,401.58 C 486.25,402.24 486.64,403.85 486.84,404.72 C 487.05,405.48 487.27,406.25 487.44,407.05 C 487.82,408.48 487.89,408.76 488.9,410.19 C 489.88,411.59 491.52,413.4 494.13,413.4 C 496.16,413.4 496.19,411.62 496.19,410.96 C 496.19,410.09 496.09,409.64 495.6,407.68 L 494.13,401.82 z "
             id="path4434"
             style="fill:#000000;stroke-width:0" /><path
             d="M 528.72,412.32 L 528.65,412.43 L 528.57,412.53 L 528.5,412.64 L 528.42,412.74 L 528.34,412.84 L 528.26,412.94 L 528.17,413.03 L 528.08,413.13 L 527.99,413.22 L 527.9,413.31 L 527.8,413.39 L 527.7,413.48 L 527.6,413.56 L 527.49,413.63 L 527.38,413.71 L 527.27,413.78 L 527.16,413.85 L 527.04,413.91 L 526.92,413.97 L 526.8,414.03 L 526.68,414.08 L 526.55,414.13 L 526.42,414.18 L 526.29,414.22 L 526.15,414.26 L 526.01,414.29 L 525.87,414.31 L 525.73,414.34 L 525.58,414.36 L 525.43,414.37 L 525.28,414.38 L 525.12,414.38 L 525.12,413.4 C 527.56,413.4 528.23,410.75 528.23,410.37 C 528.23,410.23 528.16,409.98 528.12,409.88 L 526.48,403.36 C 526.24,402.38 525.47,401.68 524.7,401.02 C 524.39,400.74 523,399.63 521.5,399.63 C 520.21,399.63 518.95,400.54 518.95,403.01 C 518.95,404.86 519.96,408.7 520.77,410.09 C 522.37,412.88 524.15,413.4 525.12,413.4 L 525.12,414.38 C 520.66,414.38 516.13,409.46 516.13,404.44 C 516.13,401.06 518.4,398.65 521.39,398.65 C 523.27,398.65 524.95,399.73 526.34,401.09 C 527.01,399 529.03,398.65 529.93,398.65 C 531.19,398.65 532.06,399.42 532.69,400.5 C 533.46,401.86 533.91,403.85 533.91,403.98 C 533.91,404.44 533.46,404.44 533.35,404.44 C 532.86,404.44 532.83,404.3 532.59,403.36 C 532.17,401.68 531.5,399.63 530.04,399.63 C 529.13,399.63 528.89,400.39 528.89,401.34 C 528.89,401.93 529.17,403.18 529.41,404.09 C 529.66,405.03 530,406.46 530.18,407.23 C 530.53,408.52 530.56,408.73 530.88,409.88 C 531.09,410.79 531.5,412.43 531.5,412.6 C 531.5,413.37 530.88,413.71 530.32,413.71 C 529.73,413.71 528.93,413.3 528.72,412.32 z "
             id="path4436"
             style="fill:#000000;stroke-width:0" /><path
             d="M 544.68,402.7 L 544.65,402.58 L 544.61,402.47 L 544.56,402.35 L 544.52,402.22 L 544.46,402.1 L 544.4,401.97 L 544.34,401.85 L 544.27,401.72 L 544.2,401.59 L 544.13,401.46 L 544.05,401.33 L 543.96,401.21 L 543.87,401.08 L 543.78,400.96 L 543.68,400.84 L 543.58,400.72 L 543.47,400.6 L 543.36,400.49 L 543.25,400.39 L 543.13,400.29 L 543.01,400.19 L 542.88,400.1 L 542.75,400.02 L 542.62,399.94 L 542.48,399.87 L 542.34,399.81 L 542.19,399.76 L 542.04,399.71 L 541.89,399.68 L 541.73,399.65 L 541.57,399.63 L 541.41,399.63 C 541.3,399.63 540.25,399.63 539.52,400.12 C 540.95,400.57 541.05,401.82 541.05,402.04 C 541.05,402.8 540.47,403.32 539.66,403.32 C 538.68,403.32 537.67,402.49 537.67,401.2 C 537.67,399.45 539.62,398.65 541.34,398.65 C 542.94,398.65 544.37,399.66 545.24,401.13 C 546.08,399.28 548,398.65 549.39,398.65 C 553.4,398.65 555.53,403.01 555.53,403.98 C 555.53,404.44 555.07,404.44 554.97,404.44 C 554.48,404.44 554.45,404.27 554.3,403.85 C 553.57,401.44 551.48,399.63 549.53,399.63 C 548.13,399.63 547.4,400.57 547.4,401.89 C 547.4,402.8 548.24,405.97 549.22,409.84 C 549.91,412.53 551.48,413.4 552.63,413.4 C 552.7,413.4 553.78,413.4 554.52,412.91 C 553.4,412.6 552.98,411.62 552.98,411 C 552.98,410.23 553.57,409.7 554.38,409.7 C 555.18,409.7 556.33,410.37 556.33,411.83 C 556.33,413.79 554.1,414.38 552.7,414.38 C 550.96,414.38 549.56,413.23 548.8,411.9 C 548.17,413.33 546.57,414.38 544.61,414.38 C 540.71,414.38 538.48,410.09 538.48,409.04 C 538.48,408.59 538.97,408.59 539.07,408.59 C 539.52,408.59 539.56,408.73 539.73,409.18 C 540.6,411.9 542.8,413.4 544.51,413.4 C 545.66,413.4 546.6,412.77 546.6,411.1 C 546.6,410.4 546.18,408.66 545.87,407.47 L 544.68,402.7 z "
             id="path4438"
             style="fill:#000000;stroke-width:0" /></g>      </g>
      <g
         transform="matrix(0.31716,0,0,0.31716,245.58994,391.6706)"
         id="g4488">
        <g
           font-weight="normal"
           xml:space="preserve"
           stroke-miterlimit="10.433"
           font-style="normal"
           font-stretch="normal"
           transform="matrix(1.0629921,0,0,-1.0629921,-186.02362,789.27165)"
           fill-rule="even-odd"
           style="font-style:normal;font-variant:normal;font-weight:normal;font-stretch:normal;letter-spacing:normal;word-spacing:normal;text-anchor:start;fill:none;fill-opacity:1;stroke:#000000;stroke-linecap:butt;stroke-linejoin:miter;stroke-miterlimit:10.43299961;stroke-dasharray:none;stroke-dashoffset:0;stroke-opacity:1"
           word-spacing="normal"
           font-size-adjust="none"
           id="g4490"
           letter-spacing="normal"
           font-variant="normal"><path
             d="M 478.66,430.91 L 478.66,431.22 L 478.65,431.56 L 478.64,431.92 L 478.62,432.29 L 478.59,432.67 L 478.55,433.07 L 478.5,433.48 L 478.44,433.89 L 478.38,434.31 L 478.3,434.73 L 478.21,435.16 L 478.11,435.58 L 478,436.01 L 477.87,436.43 L 477.74,436.84 L 477.58,437.24 L 477.41,437.64 L 477.23,438.03 L 477.03,438.4 L 476.81,438.75 L 476.58,439.09 L 476.33,439.41 L 476.06,439.71 L 475.77,439.98 L 475.46,440.23 L 475.29,440.35 L 475.13,440.46 L 474.95,440.56 L 474.78,440.65 L 474.59,440.74 L 474.4,440.81 L 474.21,440.88 L 474.01,440.94 L 473.8,441 L 473.59,441.04 L 473.38,441.07 L 473.15,441.1 L 472.92,441.11 L 472.69,441.12 L 472.64,440.02 C 475.08,440.02 475.38,436.84 475.38,434 C 475.38,431.55 474.98,429.01 473.79,424.08 L 463.37,424.08 C 464.22,427.27 465.21,431.25 467.21,434.79 C 468.55,437.23 470.39,440.02 472.64,440.02 L 472.69,441.12 C 465.76,441.12 458.09,427.07 458.09,415.66 C 458.09,410.98 459.54,405.45 464.07,405.45 L 464.07,406.55 C 462.43,406.55 461.38,407.99 461.38,412.62 C 461.38,414.72 461.68,417.61 462.97,422.49 L 473.34,422.49 C 472.79,420.2 471.74,415.96 469.85,412.38 C 468.11,408.99 466.21,406.55 464.07,406.55 L 464.07,405.45 C 471.09,405.45 478.66,419.75 478.66,430.91 z "
             id="path4492"
             style="fill:#000000;stroke-width:0" /><path
             d="M 494.27,412.36 L 494.16,412.33 L 494.05,412.31 L 493.94,412.28 L 493.84,412.24 L 493.74,412.2 L 493.64,412.16 L 493.55,412.12 L 493.47,412.07 L 493.38,412.02 L 493.3,411.96 L 493.23,411.91 L 493.16,411.85 L 493.09,411.78 L 493.03,411.72 L 492.97,411.65 L 492.91,411.59 L 492.86,411.52 L 492.81,411.45 L 492.77,411.37 L 492.73,411.3 L 492.69,411.23 L 492.65,411.15 L 492.62,411.08 L 492.6,411 L 492.57,410.92 L 492.55,410.85 L 492.53,410.77 L 492.52,410.7 L 492.51,410.62 L 492.5,410.55 L 492.5,410.47 L 492.5,410.4 C 492.5,409.46 493.23,409.11 493.86,409.11 C 494.62,409.11 495.84,409.67 495.84,411.34 C 495.84,413.71 493.12,414.38 491.24,414.38 C 486.01,414.38 481.16,409.57 481.16,404.72 C 481.16,401.72 483.25,398.65 487.61,398.65 C 493.5,398.65 496.26,402.1 496.26,402.59 C 496.26,402.8 495.95,403.18 495.67,403.18 C 495.46,403.18 495.39,403.11 495.11,402.84 C 492.39,399.63 488.31,399.63 487.68,399.63 C 485.17,399.63 484.05,401.34 484.05,403.5 C 484.05,404.51 484.54,408.31 486.36,410.71 C 487.68,412.43 489.5,413.4 491.24,413.4 C 491.73,413.4 493.4,413.33 494.27,412.36 z "
             id="path4494"
             style="fill:#000000;stroke-width:0" /></g>      </g>
      <g
         transform="matrix(0.31716,0,0,0.31716,162.80632,415.72513)"
         id="g4552">
        <g
           font-weight="normal"
           xml:space="preserve"
           stroke-miterlimit="10.433"
           id="g4554"
           font-stretch="normal"
           transform="matrix(1.0629921,0,0,-1.0629921,-186.02362,789.27165)"
           fill-rule="even-odd"
           style="font-style:normal;font-variant:normal;font-weight:normal;font-stretch:normal;letter-spacing:normal;word-spacing:normal;text-anchor:start;fill:none;fill-opacity:1;stroke:#000000;stroke-linecap:butt;stroke-linejoin:miter;stroke-miterlimit:10.43299961;stroke-dasharray:none;stroke-dashoffset:0;stroke-opacity:1"
           word-spacing="normal"
           font-size-adjust="none"
           font-style="normal"
           letter-spacing="normal"
           font-variant="normal"><path
             d="M 474.28,421.84 L 474.28,420.25 C 474.28,408.59 469.1,406.3 466.21,406.3 C 465.36,406.3 462.68,406.4 461.33,408.09 C 463.52,408.09 463.92,409.54 463.92,410.38 C 463.92,411.93 462.73,412.68 461.63,412.68 C 460.83,412.68 459.34,412.23 459.34,410.29 C 459.34,406.95 462.03,404.9 466.26,404.9 C 472.69,404.9 478.77,411.68 478.77,422.39 C 478.77,435.79 473.04,439.18 468.6,439.18 C 465.86,439.18 463.42,438.28 461.28,436.04 C 459.24,433.8 458.09,431.7 458.09,427.97 C 458.09,421.74 462.48,416.86 468.05,416.86 L 468.11,418 C 467.31,418 465.02,418 463.47,421.14 C 462.57,422.98 462.57,425.48 462.57,427.92 C 462.57,430.61 462.57,432.95 463.62,434.79 C 464.96,437.28 466.86,437.93 468.6,437.93 C 470.89,437.93 472.54,436.24 473.39,434 C 473.98,432.4 474.18,429.26 474.18,426.97 C 474.18,422.84 472.49,418 468.11,418 L 468.11,418 L 468.05,416.86 C 471.09,416.86 473.14,418.95 474.28,421.84 z "
             id="path4556"
             style="fill:#000000;stroke-width:0" /><path
             d="M 502.91,421.94 L 502.91,422.69 L 502.9,423.43 L 502.88,424.18 L 502.85,424.92 L 502.8,425.67 L 502.74,426.41 L 502.67,427.15 L 502.57,427.88 L 502.46,428.61 L 502.32,429.34 L 502.16,430.06 L 501.97,430.78 L 501.75,431.49 L 501.51,432.2 L 501.23,432.9 L 501.08,433.25 L 500.92,433.6 C 498.63,438.38 494.55,439.18 492.45,439.18 C 489.46,439.18 485.83,437.88 483.79,433.25 C 482.19,429.81 481.94,425.93 481.94,421.94 C 481.94,418.2 482.14,413.72 484.18,409.93 C 486.33,405.9 489.96,404.9 492.4,404.9 L 492.4,406 C 490.46,406 487.52,407.25 486.62,412.03 C 486.08,415.02 486.08,419.6 486.08,422.54 C 486.08,425.73 486.08,429.01 486.48,431.7 C 487.42,437.63 491.16,438.08 492.4,438.08 C 494.05,438.08 497.34,437.18 498.28,432.25 C 498.78,429.46 498.78,425.68 498.78,422.54 C 498.78,418.8 498.78,415.41 498.23,412.23 C 497.48,407.5 494.64,406 492.4,406 L 492.4,406 L 492.4,404.9 C 495.09,404.9 498.88,405.95 501.07,410.68 C 502.66,414.12 502.91,418 502.91,421.94 z "
             id="path4558"
             style="fill:#000000;stroke-width:0" /><path
             d="M 548.93,417.46 L 549.06,417.46 L 549.2,417.46 L 549.34,417.46 L 549.41,417.47 L 549.48,417.47 L 549.55,417.48 L 549.62,417.49 L 549.69,417.5 L 549.75,417.51 L 549.82,417.52 L 549.88,417.54 L 549.95,417.56 L 550.01,417.58 L 550.07,417.61 L 550.13,417.63 L 550.18,417.67 L 550.23,417.7 L 550.28,417.74 L 550.33,417.78 L 550.37,417.83 L 550.39,417.85 L 550.41,417.88 L 550.43,417.9 L 550.45,417.93 L 550.46,417.96 L 550.48,417.99 L 550.49,418.02 L 550.51,418.06 L 550.52,418.09 L 550.53,418.12 L 550.54,418.16 L 550.55,418.2 L 550.55,418.24 L 550.56,418.28 L 550.56,418.32 L 550.57,418.36 L 550.57,418.41 L 550.57,418.45 C 550.57,419.45 549.62,419.45 548.93,419.45 L 521.78,419.45 C 521.08,419.45 520.13,419.45 520.13,418.45 C 520.13,417.46 521.08,417.46 521.78,417.46 L 548.93,417.46 z "
             id="path4560"
             style="fill:#000000;stroke-width:0" /><path
             d="M 588.66,430.91 L 588.66,431.22 L 588.65,431.56 L 588.64,431.92 L 588.62,432.29 L 588.59,432.67 L 588.55,433.07 L 588.5,433.48 L 588.44,433.89 L 588.38,434.31 L 588.3,434.73 L 588.21,435.16 L 588.11,435.58 L 588,436.01 L 587.87,436.43 L 587.74,436.84 L 587.58,437.24 L 587.41,437.64 L 587.23,438.03 L 587.03,438.4 L 586.81,438.75 L 586.58,439.09 L 586.33,439.41 L 586.06,439.71 L 585.77,439.98 L 585.46,440.23 L 585.29,440.35 L 585.13,440.46 L 584.95,440.56 L 584.78,440.65 L 584.59,440.74 L 584.4,440.81 L 584.21,440.88 L 584.01,440.94 L 583.8,441 L 583.59,441.04 L 583.38,441.07 L 583.15,441.1 L 582.92,441.11 L 582.69,441.12 L 582.64,440.02 C 585.08,440.02 585.38,436.84 585.38,434 C 585.38,431.55 584.98,429.01 583.78,424.08 L 573.37,424.08 C 574.22,427.27 575.22,431.25 577.21,434.79 C 578.55,437.23 580.4,440.02 582.64,440.02 L 582.69,441.12 C 575.76,441.12 568.09,427.07 568.09,415.66 C 568.09,410.98 569.53,405.45 574.07,405.45 L 574.07,406.55 C 572.43,406.55 571.38,407.99 571.38,412.62 C 571.38,414.72 571.68,417.61 572.97,422.49 L 583.34,422.49 C 582.78,420.2 581.74,415.96 579.85,412.38 C 578.1,408.99 576.21,406.55 574.07,406.55 L 574.07,405.45 C 581.09,405.45 588.66,419.75 588.66,430.91 z "
             id="path4562"
             style="fill:#000000;stroke-width:0" /><path
             d="M 605.27,412.36 L 605.16,412.33 L 605.05,412.31 L 604.94,412.28 L 604.84,412.24 L 604.74,412.2 L 604.64,412.16 L 604.55,412.12 L 604.47,412.07 L 604.38,412.02 L 604.3,411.96 L 604.23,411.91 L 604.16,411.85 L 604.09,411.78 L 604.03,411.72 L 603.97,411.65 L 603.91,411.59 L 603.86,411.52 L 603.81,411.45 L 603.77,411.37 L 603.73,411.3 L 603.69,411.23 L 603.65,411.15 L 603.62,411.08 L 603.6,411 L 603.57,410.92 L 603.55,410.85 L 603.53,410.77 L 603.52,410.7 L 603.51,410.62 L 603.5,410.55 L 603.5,410.47 L 603.5,410.4 C 603.5,409.46 604.23,409.11 604.85,409.11 C 605.62,409.11 606.84,409.67 606.84,411.34 C 606.84,413.71 604.12,414.38 602.24,414.38 C 597.01,414.38 592.16,409.57 592.16,404.72 C 592.16,401.72 594.25,398.65 598.61,398.65 C 604.5,398.65 607.26,402.1 607.26,402.59 C 607.26,402.8 606.95,403.18 606.67,403.18 C 606.46,403.18 606.39,403.11 606.11,402.84 C 603.39,399.63 599.31,399.63 598.68,399.63 C 596.17,399.63 595.05,401.34 595.05,403.5 C 595.05,404.51 595.54,408.31 597.35,410.71 C 598.68,412.43 600.5,413.4 602.24,413.4 C 602.73,413.4 604.4,413.33 605.27,412.36 z "
             id="path4564"
             style="fill:#000000;stroke-width:0" /></g>      </g>
      <g
         transform="matrix(0.31716,0,0,0.31716,188.60727,495.54119)"
         id="g4636">
        <g
           font-weight="normal"
           xml:space="preserve"
           stroke-miterlimit="10.433"
           font-style="normal"
           font-stretch="normal"
           transform="matrix(1.0629921,0,0,-1.0629921,-186.02362,789.27165)"
           fill-rule="even-odd"
           style="font-style:normal;font-variant:normal;font-weight:normal;font-stretch:normal;letter-spacing:normal;word-spacing:normal;text-anchor:start;fill:none;fill-opacity:1;stroke:#000000;stroke-linecap:butt;stroke-linejoin:miter;stroke-miterlimit:10.43299961;stroke-dasharray:none;stroke-dashoffset:0;stroke-opacity:1"
           word-spacing="normal"
           font-size-adjust="none"
           id="g4638"
           letter-spacing="normal"
           font-variant="normal"><path
             d="M 460.38,408.94 L 460.37,408.87 L 460.35,408.79 L 460.34,408.72 L 460.32,408.64 L 460.29,408.48 L 460.25,408.32 L 460.21,408.16 L 460.18,408 L 460.14,407.84 L 460.1,407.68 L 460.09,407.6 L 460.07,407.53 L 460.05,407.46 L 460.04,407.39 L 460.02,407.32 L 460.01,407.25 L 460,407.19 L 459.98,407.13 L 459.97,407.08 L 459.96,407.02 L 459.95,406.97 L 459.95,406.93 L 459.94,406.89 L 459.94,406.85 L 459.93,406.82 L 459.93,406.8 C 459.93,405.9 460.63,405.45 461.38,405.45 C 461.98,405.45 462.88,405.85 463.22,406.85 C 463.27,406.95 463.87,409.29 464.17,410.53 C 464.52,412.03 464.92,413.52 465.27,415.02 C 465.56,416.11 465.86,417.21 466.11,418.36 C 466.31,419.2 466.71,420.64 466.76,420.84 C 467.51,422.39 470.15,426.92 474.88,426.92 C 477.12,426.92 477.57,425.08 477.57,423.43 C 477.57,420.35 475.13,413.97 474.33,411.83 C 473.88,410.68 473.83,410.09 473.83,409.54 C 473.83,407.2 475.58,405.45 477.92,405.45 C 482.6,405.45 484.44,412.73 484.44,413.12 C 484.44,413.62 484,413.62 483.84,413.62 C 483.35,413.62 483.35,413.47 483.1,412.73 C 482.1,409.34 480.46,406.55 478.02,406.55 C 477.17,406.55 476.82,407.05 476.82,408.19 C 476.82,409.44 477.27,410.63 477.72,411.73 C 478.66,414.37 480.76,419.85 480.76,422.69 C 480.76,426.02 478.61,428.02 475.03,428.02 C 470.55,428.02 468.11,424.83 467.26,423.68 C 467.01,426.47 464.96,428.02 462.68,428.02 C 460.38,428.02 459.44,426.07 458.94,425.18 C 458.14,423.48 457.45,420.55 457.45,420.35 C 457.45,419.85 457.94,419.85 458.04,419.85 C 458.54,419.85 458.59,419.9 458.89,420.99 C 459.73,424.53 460.73,426.92 462.53,426.92 C 463.52,426.92 464.07,426.27 464.07,424.63 C 464.07,423.59 463.92,423.04 463.27,420.45 L 460.38,408.94 z "
             id="path4640"
             style="fill:#000000;stroke-width:0" /><path
             d="M 502.61,405.35 L 501.42,405.35 C 501.32,404.58 500.97,402.52 500.52,402.17 C 500.24,401.96 497.55,401.96 497.07,401.96 L 490.65,401.96 C 494.31,405.21 495.53,406.18 497.62,407.82 C 500.2,409.88 502.61,412.04 502.61,415.36 C 502.61,419.57 498.91,422.15 494.45,422.15 C 490.12,422.15 487.2,419.12 487.2,415.91 C 487.2,414.13 488.7,413.96 489.04,413.96 C 489.88,413.96 490.89,414.55 490.89,415.81 C 490.89,416.43 490.65,417.66 488.84,417.66 C 489.92,420.13 492.29,420.9 493.93,420.9 C 497.41,420.9 499.23,418.18 499.23,415.36 C 499.23,412.32 497.07,409.91 495.95,408.66 L 487.55,400.36 C 487.2,400.05 487.2,399.98 487.2,399 L 501.56,399 L 502.61,405.35 z "
             id="path4642"
             style="fill:#000000;stroke-width:0" /></g>      </g>
      <g
         transform="matrix(0.31716,0,0,0.31716,324.94412,495.54119)"
         id="g4722">
        <g
           style="font-style:normal;font-variant:normal;font-weight:normal;font-stretch:normal;letter-spacing:normal;word-spacing:normal;text-anchor:start;fill:none;fill-opacity:1;stroke:#000000;stroke-linecap:butt;stroke-linejoin:miter;stroke-miterlimit:10.43299961;stroke-dasharray:none;stroke-dashoffset:0;stroke-opacity:1"
           letter-spacing="normal"
           fill-rule="even-odd"
           font-size-adjust="none"
           xml:space="preserve"
           transform="matrix(1.0629921,0,0,-1.0629921,-186.02362,789.27165)"
           word-spacing="normal"
           stroke-miterlimit="10.433"
           font-stretch="normal"
           font-variant="normal"
           id="g4724"
           font-weight="normal"
           font-style="normal"><path
             style="fill:#000000;stroke-width:0"
             d="M 460.38,408.94 L 460.37,408.87 L 460.35,408.79 L 460.34,408.72 L 460.32,408.64 L 460.29,408.48 L 460.25,408.32 L 460.21,408.16 L 460.18,408 L 460.14,407.84 L 460.1,407.68 L 460.09,407.6 L 460.07,407.53 L 460.05,407.46 L 460.04,407.39 L 460.02,407.32 L 460.01,407.25 L 460,407.19 L 459.98,407.13 L 459.97,407.08 L 459.96,407.02 L 459.95,406.97 L 459.95,406.93 L 459.94,406.89 L 459.94,406.85 L 459.93,406.82 L 459.93,406.8 C 459.93,405.9 460.63,405.45 461.38,405.45 C 461.98,405.45 462.88,405.85 463.22,406.85 C 463.27,406.95 463.87,409.29 464.17,410.53 C 464.52,412.03 464.92,413.52 465.27,415.02 C 465.56,416.11 465.86,417.21 466.11,418.36 C 466.31,419.2 466.71,420.64 466.76,420.84 C 467.51,422.39 470.15,426.92 474.88,426.92 C 477.12,426.92 477.57,425.08 477.57,423.43 C 477.57,420.35 475.13,413.97 474.33,411.83 C 473.88,410.68 473.83,410.09 473.83,409.54 C 473.83,407.2 475.58,405.45 477.92,405.45 C 482.6,405.45 484.44,412.73 484.44,413.12 C 484.44,413.62 484,413.62 483.84,413.62 C 483.35,413.62 483.35,413.47 483.1,412.73 C 482.1,409.34 480.46,406.55 478.02,406.55 C 477.17,406.55 476.82,407.05 476.82,408.19 C 476.82,409.44 477.27,410.63 477.72,411.73 C 478.66,414.37 480.76,419.85 480.76,422.69 C 480.76,426.02 478.61,428.02 475.03,428.02 C 470.55,428.02 468.11,424.83 467.26,423.68 C 467.01,426.47 464.96,428.02 462.68,428.02 C 460.38,428.02 459.44,426.07 458.94,425.18 C 458.14,423.48 457.45,420.55 457.45,420.35 C 457.45,419.85 457.94,419.85 458.04,419.85 C 458.54,419.85 458.59,419.9 458.89,420.99 C 459.73,424.53 460.73,426.92 462.53,426.92 C 463.52,426.92 464.07,426.27 464.07,424.63 C 464.07,423.59 463.92,423.04 463.27,420.45 L 460.38,408.94 z "
             id="path4726" /><path
             style="fill:#000000;stroke-width:0"
             d="M 496.68,421.18 L 496.68,421.22 L 496.68,421.26 L 496.68,421.3 L 496.68,421.34 L 496.68,421.38 L 496.68,421.42 L 496.68,421.45 L 496.68,421.49 L 496.67,421.52 L 496.67,421.55 L 496.67,421.59 L 496.67,421.62 L 496.66,421.64 L 496.66,421.67 L 496.66,421.7 L 496.65,421.73 L 496.65,421.75 L 496.65,421.77 L 496.63,421.82 L 496.62,421.86 L 496.61,421.9 L 496.59,421.93 L 496.57,421.96 L 496.55,421.99 L 496.52,422.02 L 496.5,422.04 L 496.47,422.06 L 496.43,422.08 L 496.4,422.09 L 496.36,422.1 L 496.31,422.12 L 496.26,422.12 L 496.24,422.13 L 496.21,422.13 L 496.18,422.14 L 496.16,422.14 L 496.13,422.14 L 496.1,422.14 L 496.06,422.14 L 496.03,422.15 L 496,422.15 L 495.96,422.15 L 495.93,422.15 L 495.89,422.15 L 495.85,422.15 L 495.81,422.15 L 495.77,422.15 L 495.73,422.15 L 495.68,422.15 L 495.64,422.15 C 493.4,419.96 490.23,419.92 488.8,419.92 L 488.8,418.67 C 489.64,418.67 491.94,418.67 493.86,419.64 L 493.86,401.86 C 493.86,400.71 493.86,400.25 490.37,400.25 L 489.04,400.25 L 489.04,399 C 489.67,399.04 493.96,399.14 495.25,399.14 C 496.33,399.14 500.73,399.04 501.49,399 L 501.49,400.25 L 500.17,400.25 C 496.68,400.25 496.68,400.71 496.68,401.86 L 496.68,421.18 z "
             id="path4728" /></g>      </g>
      <path
         id="path6710"
         d="M 570.73619,486.17168 L 570.73619,588.70216"
         style="fill:none;fill-opacity:0.75;fill-rule:evenodd;stroke:#000000;stroke-width:1;stroke-linecap:butt;stroke-linejoin:miter;stroke-miterlimit:4;stroke-dasharray:4, 4;stroke-dashoffset:0;stroke-opacity:1;display:inline" />
      <path
         sodipodi:nodetypes="cc"
         id="path3227"
         d="M 368.2006,425.05745 L 368.2006,562.94327"
         style="fill:none;fill-opacity:0.75;fill-rule:evenodd;stroke:#000000;stroke-width:1;stroke-linecap:butt;stroke-linejoin:miter;stroke-miterlimit:4;stroke-dasharray:4, 4;stroke-dashoffset:0;stroke-opacity:1;display:inline" />
      <path
         sodipodi:open="true"
         sodipodi:end="2.9594293"
         sodipodi:start="0.23948908"
         d="M 387.33637,490.33908 A 19.697975,19.697975 0 0 1 348.82854,489.23503"
         sodipodi:ry="19.697975"
         sodipodi:rx="19.697975"
         sodipodi:cy="485.6666"
         sodipodi:cx="368.20059"
         id="path8654"
         style="fill:none;fill-opacity:1;fill-rule:evenodd;stroke:#000000;stroke-width:1;stroke-linecap:square;stroke-linejoin:round;stroke-miterlimit:4;stroke-dasharray:1, 2;stroke-dashoffset:0;stroke-opacity:1"
         sodipodi:type="arc" />
      <rect
         style="fill:#dedede;fill-opacity:1;fill-rule:evenodd;stroke:#000000;stroke-width:1;stroke-linecap:square;stroke-linejoin:round;stroke-miterlimit:4;stroke-dasharray:none;stroke-dashoffset:0;stroke-opacity:1"
         id="rect9625"
         width="441.94174"
         y="538.39252"
         x="216.17264"
         height="24.24367" />
      <path
         transform="matrix(1,0,0,-1,201.96429,1024.0596)"
         sodipodi:type="arc"
         style="fill:none;fill-opacity:1;fill-rule:evenodd;stroke:#000000;stroke-width:1;stroke-linecap:square;stroke-linejoin:round;stroke-miterlimit:4;stroke-dasharray:1, 2;stroke-dashoffset:0;stroke-opacity:1"
         id="path9627"
         sodipodi:cx="368.20059"
         sodipodi:cy="485.6666"
         sodipodi:rx="19.697975"
         sodipodi:ry="19.697975"
         d="M 387.8059,487.57505 A 19.697975,19.697975 0 0 1 348.70931,488.51269"
         sodipodi:start="0.097037885"
         sodipodi:end="2.9965984"
         sodipodi:open="true" />
      <path
         id="path3229"
         d="M 249.0026,595.26816 L 278.8021,547.79099"
         style="fill:none;fill-opacity:0.75;fill-rule:evenodd;stroke:#000000;stroke-width:1px;stroke-linecap:butt;stroke-linejoin:miter;marker-end:url(#Arrow1Lend);stroke-opacity:1" />
      <path
         id="path3231"
         d="M 415.67777,597.79354 L 415.67777,521.02194"
         style="fill:none;fill-opacity:0.75;fill-rule:evenodd;stroke:#000000;stroke-width:1px;stroke-linecap:butt;stroke-linejoin:miter;marker-end:url(#Arrow1Lend);stroke-opacity:1" />
      <path
         id="text9647"
         d="M 390.44516,599.73724 L 390.44516,601.1933 C 389.98031,600.76036 389.48356,600.4368 388.95493,600.2226 C 388.43083,600.00841 387.87256,599.90132 387.28012,599.90131 C 386.11345,599.90132 385.22022,600.25906 384.60043,600.97455 C 383.98064,601.68549 383.67074,602.71544 383.67075,604.06439 C 383.67074,605.4088 383.98064,606.43874 384.60043,607.15424 C 385.22022,607.86517 386.11345,608.22064 387.28012,608.22064 C 387.87256,608.22064 388.43083,608.11355 388.95493,607.89935 C 389.48356,607.68516 389.98031,607.36159 390.44516,606.92865 L 390.44516,608.37103 C 389.96208,608.69916 389.44938,608.94525 388.90707,609.10931 C 388.36931,609.27338 387.79965,609.35541 387.19809,609.35541 C 385.65316,609.35541 384.43637,608.88373 383.5477,607.94037 C 382.65903,606.99245 382.21469,605.70046 382.21469,604.06439 C 382.21469,602.42377 382.65903,601.13178 383.5477,600.18842 C 384.43637,599.24051 385.65316,598.76655 387.19809,598.76654 C 387.80876,598.76655 388.38298,598.84858 388.92075,599.01263 C 389.46306,599.17215 389.97119,599.41369 390.44516,599.73724 M 395.50375,602.38275 C 394.82927,602.38276 394.29607,602.64708 393.90414,603.17572 C 393.51221,603.69981 393.31625,604.41987 393.31625,605.33588 C 393.31625,606.25189 393.50994,606.97423 393.89731,607.50287 C 394.28923,608.02696 394.82471,608.289 395.50375,608.289 C 396.17367,608.289 396.70459,608.02468 397.09653,607.49603 C 397.48845,606.96739 397.68441,606.24734 397.68442,605.33588 C 397.68441,604.42898 397.48845,603.71121 397.09653,603.18256 C 396.70459,602.64936 396.17367,602.38276 395.50375,602.38275 M 395.50375,601.31635 C 396.5975,601.31635 397.45655,601.67182 398.0809,602.38275 C 398.70524,603.0937 399.01742,604.07807 399.01743,605.33588 C 399.01742,606.58913 398.70524,607.57351 398.0809,608.289 C 397.45655,608.99994 396.5975,609.35541 395.50375,609.35541 C 394.40544,609.35541 393.54412,608.99994 392.91977,608.289 C 392.29998,607.57351 391.99008,606.58913 391.99008,605.33588 C 391.99008,604.07807 392.29998,603.0937 392.91977,602.38275 C 393.54412,601.67182 394.40544,601.31635 395.50375,601.31635 M 405.53207,602.6767 C 405.39079,602.59467 405.23584,602.53543 405.06723,602.49896 C 404.90316,602.45795 404.72087,602.43745 404.52036,602.43744 C 403.80941,602.43745 403.26254,602.66987 402.87973,603.1347 C 402.50147,603.595 402.31234,604.25808 402.31235,605.12396 L 402.31235,609.15717 L 401.0477,609.15717 L 401.0477,601.50092 L 402.31235,601.50092 L 402.31235,602.69037 C 402.57667,602.22553 402.92074,601.88146 403.34457,601.65814 C 403.7684,601.43029 404.28337,601.31635 404.8895,601.31635 C 404.97608,601.31635 405.07178,601.32319 405.17661,601.33685 C 405.28142,601.34598 405.39763,601.36193 405.52524,601.3847 L 405.53207,602.6767 M 413.11313,605.01459 L 413.11313,605.62982 L 407.32993,605.62982 C 407.38461,606.49571 407.64438,607.15652 408.10922,607.61224 C 408.57862,608.06342 409.23031,608.289 410.0643,608.289 C 410.54737,608.289 411.01449,608.22976 411.46567,608.11127 C 411.92139,607.99278 412.37256,607.81504 412.81918,607.57806 L 412.81918,608.76752 C 412.368,608.95892 411.90544,609.10476 411.43149,609.20502 C 410.95752,609.30528 410.47673,609.35541 409.98911,609.35541 C 408.76775,609.35541 407.79932,608.99994 407.08383,608.289 C 406.37289,607.57807 406.01742,606.61648 406.01743,605.40424 C 406.01742,604.15099 406.35466,603.1575 407.02914,602.42377 C 407.70818,601.68549 408.62191,601.31635 409.77036,601.31635 C 410.8003,601.31635 411.61377,601.64904 412.21078,602.31439 C 412.81234,602.97521 413.11312,603.87527 413.11313,605.01459 M 411.85532,604.64545 C 411.84619,603.9573 411.65251,603.40815 411.27426,602.99799 C 410.90056,602.58784 410.40381,602.38276 409.78403,602.38275 C 409.0822,602.38276 408.51938,602.581 408.09555,602.97748 C 407.67628,603.37397 407.43474,603.93224 407.37094,604.65228 L 411.85532,604.64545 M 415.47153,607.42084 L 416.91391,607.42084 L 416.91391,609.15717 L 415.47153,609.15717 L 415.47153,607.42084 M 415.47153,601.91791 L 416.91391,601.91791 L 416.91391,603.65424 L 415.47153,603.65424 L 415.47153,601.91791"
         style="font-size:14px;font-style:normal;font-weight:normal;fill:#000000;fill-opacity:1;stroke:none;stroke-width:1px;stroke-linecap:butt;stroke-linejoin:miter;stroke-opacity:1;font-family:Bitstream Vera Sans" />
      <path
         id="text9651"
         d="M 224.44516,600.50336 L 224.44516,601.95941 C 223.98031,601.52648 223.48356,601.20291 222.95493,600.98871 C 222.43083,600.77452 221.87256,600.66743 221.28012,600.66742 C 220.11345,600.66743 219.22022,601.02518 218.60043,601.74066 C 217.98064,602.45161 217.67074,603.48155 217.67075,604.83051 C 217.67074,606.17491 217.98064,607.20486 218.60043,607.92035 C 219.22022,608.63129 220.11345,608.98676 221.28012,608.98676 C 221.87256,608.98676 222.43083,608.87966 222.95493,608.66547 C 223.48356,608.45128 223.98031,608.12771 224.44516,607.69476 L 224.44516,609.13715 C 223.96208,609.46527 223.44938,609.71136 222.90707,609.87543 C 222.36931,610.03949 221.79965,610.12152 221.19809,610.12152 C 219.65316,610.12152 218.43637,609.64984 217.5477,608.70648 C 216.65903,607.75857 216.21469,606.46658 216.21469,604.83051 C 216.21469,603.18989 216.65903,601.8979 217.5477,600.95453 C 218.43637,600.00662 219.65316,599.53266 221.19809,599.53265 C 221.80876,599.53266 222.38298,599.6147 222.92075,599.77875 C 223.46306,599.93826 223.97119,600.1798 224.44516,600.50336 M 226.53696,599.28656 L 227.79477,599.28656 L 227.79477,609.92328 L 226.53696,609.92328 L 226.53696,599.28656 M 233.89926,606.07465 C 232.88298,606.07465 232.17888,606.19086 231.78696,606.42328 C 231.39503,606.6557 231.19906,607.05219 231.19907,607.61273 C 231.19906,608.05935 231.3449,608.41482 231.63657,608.67914 C 231.93279,608.9389 232.33383,609.06879 232.83969,609.06879 C 233.53695,609.06879 234.09522,608.82269 234.5145,608.33051 C 234.93832,607.83376 235.15023,607.17523 235.15024,606.35492 L 235.15024,606.07465 L 233.89926,606.07465 M 236.40805,605.55511 L 236.40805,609.92328 L 235.15024,609.92328 L 235.15024,608.76117 C 234.86312,609.22601 234.50538,609.57009 234.077,609.7934 C 233.64861,610.01215 233.12452,610.12152 232.50473,610.12152 C 231.72087,610.12152 231.09653,609.90277 230.63168,609.46527 C 230.1714,609.02321 229.94125,608.43305 229.94125,607.69476 C 229.94125,606.83344 230.22836,606.18402 230.80258,605.74652 C 231.38136,605.30903 232.24268,605.09028 233.38657,605.09027 L 235.15024,605.09027 L 235.15024,604.96722 C 235.15023,604.38845 234.95883,603.94184 234.57602,603.62738 C 234.19776,603.30838 233.66456,603.14887 232.97641,603.14886 C 232.53891,603.14887 232.1128,603.20128 231.69809,603.30609 C 231.28337,603.41092 230.88461,603.56814 230.5018,603.77777 L 230.5018,602.61566 C 230.96209,602.43793 231.4087,602.30577 231.84164,602.21918 C 232.27458,602.12804 232.69613,602.08247 233.10629,602.08246 C 234.21371,602.08247 235.04086,602.36958 235.58774,602.94379 C 236.13461,603.51801 236.40804,604.38845 236.40805,605.55511 M 244.07114,603.42914 L 244.07114,599.28656 L 245.32895,599.28656 L 245.32895,609.92328 L 244.07114,609.92328 L 244.07114,608.77484 C 243.80681,609.23057 243.47185,609.57009 243.06625,609.7934 C 242.66521,610.01215 242.18213,610.12152 241.61703,610.12152 C 240.6919,610.12152 239.93767,609.75238 239.35434,609.0141 C 238.77556,608.27582 238.48617,607.30512 238.48618,606.10199 C 238.48617,604.89887 238.77556,603.92817 239.35434,603.18988 C 239.93767,602.45161 240.6919,602.08247 241.61703,602.08246 C 242.18213,602.08247 242.66521,602.19412 243.06625,602.41742 C 243.47185,602.63618 243.80681,602.97342 244.07114,603.42914 M 239.785,606.10199 C 239.785,607.02712 239.97413,607.75401 240.35239,608.28265 C 240.7352,608.80674 241.25928,609.06879 241.92465,609.06879 C 242.59001,609.06879 243.1141,608.80674 243.49692,608.28265 C 243.87972,607.75401 244.07113,607.02712 244.07114,606.10199 C 244.07113,605.17686 243.87972,604.45226 243.49692,603.92816 C 243.1141,603.39952 242.59001,603.1352 241.92465,603.13519 C 241.25928,603.1352 240.7352,603.39952 240.35239,603.92816 C 239.97413,604.45226 239.785,605.17686 239.785,606.10199 M 252.95786,603.42914 L 252.95786,599.28656 L 254.21567,599.28656 L 254.21567,609.92328 L 252.95786,609.92328 L 252.95786,608.77484 C 252.69353,609.23057 252.35857,609.57009 251.95297,609.7934 C 251.55193,610.01215 251.06885,610.12152 250.50375,610.12152 C 249.57862,610.12152 248.82439,609.75238 248.24106,609.0141 C 247.66228,608.27582 247.37289,607.30512 247.37289,606.10199 C 247.37289,604.89887 247.66228,603.92817 248.24106,603.18988 C 248.82439,602.45161 249.57862,602.08247 250.50375,602.08246 C 251.06885,602.08247 251.55193,602.19412 251.95297,602.41742 C 252.35857,602.63618 252.69353,602.97342 252.95786,603.42914 M 248.67172,606.10199 C 248.67172,607.02712 248.86085,607.75401 249.23911,608.28265 C 249.62191,608.80674 250.146,609.06879 250.81137,609.06879 C 251.47673,609.06879 252.00082,608.80674 252.38364,608.28265 C 252.76644,607.75401 252.95785,607.02712 252.95786,606.10199 C 252.95785,605.17686 252.76644,604.45226 252.38364,603.92816 C 252.00082,603.39952 251.47673,603.1352 250.81137,603.13519 C 250.146,603.1352 249.62191,603.39952 249.23911,603.92816 C 248.86085,604.45226 248.67172,605.17686 248.67172,606.10199 M 256.80649,602.26703 L 258.0643,602.26703 L 258.0643,609.92328 L 256.80649,609.92328 L 256.80649,602.26703 M 256.80649,599.28656 L 258.0643,599.28656 L 258.0643,600.87933 L 256.80649,600.87933 L 256.80649,599.28656 M 267.05356,605.30219 L 267.05356,609.92328 L 265.79575,609.92328 L 265.79575,605.3432 C 265.79574,604.6186 265.65446,604.07628 265.37192,603.71625 C 265.08936,603.35623 264.66553,603.17622 264.10043,603.17621 C 263.42139,603.17622 262.88591,603.39269 262.49399,603.82562 C 262.10206,604.25857 261.90609,604.84874 261.9061,605.59613 L 261.9061,609.92328 L 260.64145,609.92328 L 260.64145,602.26703 L 261.9061,602.26703 L 261.9061,603.45648 C 262.20688,602.9962 262.56007,602.65213 262.96567,602.42426 C 263.37582,602.1964 263.8475,602.08247 264.38071,602.08246 C 265.26026,602.08247 265.92562,602.3559 266.3768,602.90277 C 266.82796,603.4451 267.05355,604.2449 267.05356,605.30219 M 274.61411,606.00629 C 274.6141,605.09483 274.42497,604.38845 274.04672,603.88715 C 273.67302,603.38585 273.14665,603.1352 272.46762,603.13519 C 271.79314,603.1352 271.26677,603.38585 270.88852,603.88715 C 270.51482,604.38845 270.32797,605.09483 270.32797,606.00629 C 270.32797,606.91319 270.51482,607.61729 270.88852,608.11859 C 271.26677,608.61989 271.79314,608.87055 272.46762,608.87054 C 273.14665,608.87055 273.67302,608.61989 274.04672,608.11859 C 274.42497,607.61729 274.6141,606.91319 274.61411,606.00629 M 275.87192,608.97308 C 275.87191,610.27647 275.58252,611.24489 275.00375,611.87836 C 274.42497,612.51638 273.53858,612.83539 272.34457,612.83539 C 271.90251,612.83539 271.48552,612.80121 271.0936,612.73285 C 270.70167,612.66904 270.32113,612.56878 269.952,612.43207 L 269.952,611.20844 C 270.32113,611.40895 270.68572,611.55707 271.04575,611.65277 C 271.40577,611.74847 271.77263,611.79632 272.14633,611.79633 C 272.9712,611.79632 273.58871,611.57985 273.99887,611.14691 C 274.40902,610.71853 274.6141,610.06911 274.61411,609.19867 L 274.61411,608.5766 C 274.35433,609.02777 274.02165,609.36501 273.61606,609.58832 C 273.21045,609.81163 272.7251,609.92328 272.16,609.92328 C 271.2212,609.92328 270.46469,609.56553 269.89047,608.85004 C 269.31625,608.13454 269.02914,607.18663 269.02914,606.00629 C 269.02914,604.8214 269.31625,603.8712 269.89047,603.1557 C 270.46469,602.44021 271.2212,602.08247 272.16,602.08246 C 272.7251,602.08247 273.21045,602.19412 273.61606,602.41742 C 274.02165,602.64073 274.35433,602.97797 274.61411,603.42914 L 274.61411,602.26703 L 275.87192,602.26703 L 275.87192,608.97308 M 278.78403,608.18695 L 280.22641,608.18695 L 280.22641,609.92328 L 278.78403,609.92328 L 278.78403,608.18695 M 278.78403,602.68402 L 280.22641,602.68402 L 280.22641,604.42035 L 278.78403,604.42035 L 278.78403,602.68402"
         style="font-size:14px;font-style:normal;font-weight:normal;fill:#000000;fill-opacity:1;stroke:none;stroke-width:1px;stroke-linecap:butt;stroke-linejoin:miter;stroke-opacity:1;font-family:Bitstream Vera Sans" />
      <path
         sodipodi:open="true"
         sodipodi:end="6.281681"
         sodipodi:start="6.1005509"
         d="M 299.99115,499.16496 A 86.428574,86.428574 0 0 1 301.42848,514.73217"
         sodipodi:ry="86.428574"
         sodipodi:rx="86.428574"
         sodipodi:cy="514.86218"
         sodipodi:cx="215"
         id="path10624"
         style="fill:none;fill-opacity:1;fill-rule:evenodd;stroke:#000000;stroke-width:1;stroke-linecap:square;stroke-linejoin:round;stroke-miterlimit:4;stroke-dasharray:1, 2;stroke-dashoffset:0;stroke-opacity:1"
         sodipodi:type="arc" />
      <path
         transform="translate(0,1.2626907)"
         sodipodi:open="true"
         sodipodi:end="3.1415927"
         sodipodi:start="2.7386308"
         d="M 159.92021,537.87966 A 61.42857,61.42857 0 0 1 155,513.79077"
         sodipodi:ry="61.42857"
         sodipodi:rx="61.42857"
         sodipodi:cy="513.79077"
         sodipodi:cx="216.42857"
         id="path11604"
         style="fill:none;fill-opacity:1;fill-rule:evenodd;stroke:#000000;stroke-width:1;stroke-linecap:square;stroke-linejoin:round;stroke-miterlimit:4;stroke-dasharray:1, 2;stroke-dashoffset:0;stroke-opacity:1"
         sodipodi:type="arc" />
      <g
         transform="matrix(0.31716,0,0,0.31716,445.9823,410.73907)"
         id="g12577"
         style="display:inline">
        <g
           font-weight="normal"
           xml:space="preserve"
           stroke-miterlimit="10.433"
           font-style="normal"
           font-stretch="normal"
           transform="matrix(1.0629921,0,0,-1.0629921,-186.02362,789.27165)"
           fill-rule="even-odd"
           style="font-style:normal;font-variant:normal;font-weight:normal;font-stretch:normal;letter-spacing:normal;word-spacing:normal;text-anchor:start;fill:none;fill-opacity:1;stroke:#000000;stroke-linecap:butt;stroke-linejoin:miter;stroke-miterlimit:10.43299961;stroke-dasharray:none;stroke-dashoffset:0;stroke-opacity:1"
           word-spacing="normal"
           font-size-adjust="none"
           id="g12579"
           letter-spacing="normal"
           font-variant="normal"><path
             d="M 478.66,430.91 L 478.66,431.22 L 478.65,431.56 L 478.64,431.92 L 478.62,432.29 L 478.59,432.67 L 478.55,433.07 L 478.5,433.48 L 478.44,433.89 L 478.38,434.31 L 478.3,434.73 L 478.21,435.16 L 478.11,435.58 L 478,436.01 L 477.87,436.43 L 477.74,436.84 L 477.58,437.24 L 477.41,437.64 L 477.23,438.03 L 477.03,438.4 L 476.81,438.75 L 476.58,439.09 L 476.33,439.41 L 476.06,439.71 L 475.77,439.98 L 475.46,440.23 L 475.29,440.35 L 475.13,440.46 L 474.95,440.56 L 474.78,440.65 L 474.59,440.74 L 474.4,440.81 L 474.21,440.88 L 474.01,440.94 L 473.8,441 L 473.59,441.04 L 473.38,441.07 L 473.15,441.1 L 472.92,441.11 L 472.69,441.12 L 472.64,440.02 C 475.08,440.02 475.38,436.84 475.38,434 C 475.38,431.55 474.98,429.01 473.79,424.08 L 463.37,424.08 C 464.22,427.27 465.21,431.25 467.21,434.79 C 468.55,437.23 470.39,440.02 472.64,440.02 L 472.69,441.12 C 465.76,441.12 458.09,427.07 458.09,415.66 C 458.09,410.98 459.54,405.45 464.07,405.45 L 464.07,406.55 C 462.43,406.55 461.38,407.99 461.38,412.62 C 461.38,414.72 461.68,417.61 462.97,422.49 L 473.34,422.49 C 472.79,420.2 471.74,415.96 469.85,412.38 C 468.11,408.99 466.21,406.55 464.07,406.55 L 464.07,405.45 C 471.09,405.45 478.66,419.75 478.66,430.91 z "
             id="path12581"
             style="fill:#000000;stroke-width:0" /><path
             d="M 494.27,412.36 L 494.16,412.33 L 494.05,412.31 L 493.94,412.28 L 493.84,412.24 L 493.74,412.2 L 493.64,412.16 L 493.55,412.12 L 493.47,412.07 L 493.38,412.02 L 493.3,411.96 L 493.23,411.91 L 493.16,411.85 L 493.09,411.78 L 493.03,411.72 L 492.97,411.65 L 492.91,411.59 L 492.86,411.52 L 492.81,411.45 L 492.77,411.37 L 492.73,411.3 L 492.69,411.23 L 492.65,411.15 L 492.62,411.08 L 492.6,411 L 492.57,410.92 L 492.55,410.85 L 492.53,410.77 L 492.52,410.7 L 492.51,410.62 L 492.5,410.55 L 492.5,410.47 L 492.5,410.4 C 492.5,409.46 493.23,409.11 493.86,409.11 C 494.62,409.11 495.84,409.67 495.84,411.34 C 495.84,413.71 493.12,414.38 491.24,414.38 C 486.01,414.38 481.16,409.57 481.16,404.72 C 481.16,401.72 483.25,398.65 487.61,398.65 C 493.5,398.65 496.26,402.1 496.26,402.59 C 496.26,402.8 495.95,403.18 495.67,403.18 C 495.46,403.18 495.39,403.11 495.11,402.84 C 492.39,399.63 488.31,399.63 487.68,399.63 C 485.17,399.63 484.05,401.34 484.05,403.5 C 484.05,404.51 484.54,408.31 486.36,410.71 C 487.68,412.43 489.5,413.4 491.24,413.4 C 491.73,413.4 493.4,413.33 494.27,412.36 z "
             id="path12583"
             style="fill:#000000;stroke-width:0" /></g>      </g>
      <g
         id="g12585"
         transform="matrix(0.31716,0,0,0.31716,290.58994,391.6706)">
        <g
           font-variant="normal"
           letter-spacing="normal"
           id="g12587"
           font-size-adjust="none"
           word-spacing="normal"
           style="font-style:normal;font-variant:normal;font-weight:normal;font-stretch:normal;letter-spacing:normal;word-spacing:normal;text-anchor:start;fill:none;fill-opacity:1;stroke:#000000;stroke-linecap:butt;stroke-linejoin:miter;stroke-miterlimit:10.43299961;stroke-dasharray:none;stroke-dashoffset:0;stroke-opacity:1"
           fill-rule="even-odd"
           transform="matrix(1.0629921,0,0,-1.0629921,-186.02362,789.27165)"
           font-stretch="normal"
           font-style="normal"
           stroke-miterlimit="10.433"
           xml:space="preserve"
           font-weight="normal"><path
             style="fill:#000000;stroke-width:0"
             id="path12589"
             d="M 478.66,430.91 L 478.66,431.22 L 478.65,431.56 L 478.64,431.92 L 478.62,432.29 L 478.59,432.67 L 478.55,433.07 L 478.5,433.48 L 478.44,433.89 L 478.38,434.31 L 478.3,434.73 L 478.21,435.16 L 478.11,435.58 L 478,436.01 L 477.87,436.43 L 477.74,436.84 L 477.58,437.24 L 477.41,437.64 L 477.23,438.03 L 477.03,438.4 L 476.81,438.75 L 476.58,439.09 L 476.33,439.41 L 476.06,439.71 L 475.77,439.98 L 475.46,440.23 L 475.29,440.35 L 475.13,440.46 L 474.95,440.56 L 474.78,440.65 L 474.59,440.74 L 474.4,440.81 L 474.21,440.88 L 474.01,440.94 L 473.8,441 L 473.59,441.04 L 473.38,441.07 L 473.15,441.1 L 472.92,441.11 L 472.69,441.12 L 472.64,440.02 C 475.08,440.02 475.38,436.84 475.38,434 C 475.38,431.55 474.98,429.01 473.79,424.08 L 463.37,424.08 C 464.22,427.27 465.21,431.25 467.21,434.79 C 468.55,437.23 470.39,440.02 472.64,440.02 L 472.69,441.12 C 465.76,441.12 458.09,427.07 458.09,415.66 C 458.09,410.98 459.54,405.45 464.07,405.45 L 464.07,406.55 C 462.43,406.55 461.38,407.99 461.38,412.62 C 461.38,414.72 461.68,417.61 462.97,422.49 L 473.34,422.49 C 472.79,420.2 471.74,415.96 469.85,412.38 C 468.11,408.99 466.21,406.55 464.07,406.55 L 464.07,405.45 C 471.09,405.45 478.66,419.75 478.66,430.91 z " /><path
             style="fill:#000000;stroke-width:0"
             id="path12591"
             d="M 494.27,412.36 L 494.16,412.33 L 494.05,412.31 L 493.94,412.28 L 493.84,412.24 L 493.74,412.2 L 493.64,412.16 L 493.55,412.12 L 493.47,412.07 L 493.38,412.02 L 493.3,411.96 L 493.23,411.91 L 493.16,411.85 L 493.09,411.78 L 493.03,411.72 L 492.97,411.65 L 492.91,411.59 L 492.86,411.52 L 492.81,411.45 L 492.77,411.37 L 492.73,411.3 L 492.69,411.23 L 492.65,411.15 L 492.62,411.08 L 492.6,411 L 492.57,410.92 L 492.55,410.85 L 492.53,410.77 L 492.52,410.7 L 492.51,410.62 L 492.5,410.55 L 492.5,410.47 L 492.5,410.4 C 492.5,409.46 493.23,409.11 493.86,409.11 C 494.62,409.11 495.84,409.67 495.84,411.34 C 495.84,413.71 493.12,414.38 491.24,414.38 C 486.01,414.38 481.16,409.57 481.16,404.72 C 481.16,401.72 483.25,398.65 487.61,398.65 C 493.5,398.65 496.26,402.1 496.26,402.59 C 496.26,402.8 495.95,403.18 495.67,403.18 C 495.46,403.18 495.39,403.11 495.11,402.84 C 492.39,399.63 488.31,399.63 487.68,399.63 C 485.17,399.63 484.05,401.34 484.05,403.5 C 484.05,404.51 484.54,408.31 486.36,410.71 C 487.68,412.43 489.5,413.4 491.24,413.4 C 491.73,413.4 493.4,413.33 494.27,412.36 z " /></g>      </g>
    </g>
  </g>
</svg>
